<?xml version="1.0" encoding="UTF-8"?>
<svg version="1.1" xmlns="http://www.w3.org/2000/svg" width="512" height="512">
<path d="M0 0 C168.96 0 337.92 0 512 0 C512 168.96 512 337.92 512 512 C343.04 512 174.08 512 0 512 C0 343.04 0 174.08 0 0 Z " fill="#B6989B" transform="translate(0,0)"/>
<path d="M0 0 C0.81689708 -0.00226556 1.63379415 -0.00453111 2.47544569 -0.00686532 C5.19876854 -0.01316942 7.92204116 -0.01237826 10.64537048 -0.0115509 C12.60395878 -0.01454472 14.56254649 -0.01794777 16.52113342 -0.02172852 C21.83347613 -0.03055223 27.14580273 -0.03290601 32.45815206 -0.0335443 C35.78186093 -0.03425598 39.10556574 -0.0363926 42.42927361 -0.03904152 C54.03858067 -0.04829113 65.64787626 -0.05237708 77.25718689 -0.05158997 C88.05489504 -0.05099 98.8525531 -0.06152693 109.65024859 -0.07733363 C118.93800752 -0.09044222 128.22575016 -0.09577244 137.51351827 -0.09513456 C143.05271156 -0.09488045 148.59186037 -0.09768306 154.13104439 -0.10831261 C159.34723897 -0.11804898 164.56334706 -0.11803505 169.77954483 -0.11079597 C171.6845519 -0.10975683 173.58956451 -0.11207277 175.49456215 -0.11815643 C196.98744617 -0.18229915 217.25283622 1.8031993 233.49668884 17.69621277 C234.55446072 18.82719559 235.59740221 19.9723169 236.62168884 21.13371277 C237.31198181 21.90715027 237.31198181 21.90715027 238.01622009 22.69621277 C253.2564491 40.37672014 254.08069867 58.56394523 253.98497009 80.82511902 C253.98445046 83.2215983 253.98497214 85.61807802 253.98648071 88.01455688 C253.98639139 93.01812671 253.97604246 98.0215341 253.95787048 103.02507019 C253.9351728 109.41217882 253.93464592 115.79905082 253.94138813 122.1861887 C253.94474236 127.12866285 253.93807087 132.07108386 253.9282589 137.0135479 C253.92443261 139.3676774 253.92324791 141.72181283 253.92484474 144.0759449 C253.92521898 147.37469208 253.91249579 150.67314495 253.89634705 153.97184753 C253.90006317 155.40534294 253.90006317 155.40534294 253.90385437 156.86779785 C253.83032449 166.36261182 252.63467409 175.57595901 248.99668884 184.38371277 C248.55067322 185.48199402 248.10465759 186.58027527 247.64512634 187.71183777 C247.30739197 188.51105652 246.96965759 189.31027527 246.62168884 190.13371277 C245.96168884 190.13371277 245.30168884 190.13371277 244.62168884 190.13371277 C244.31231384 191.12371277 244.31231384 191.12371277 243.99668884 192.13371277 C237.97532108 205.27124243 225.45890155 215.23440834 212.24668884 220.44621277 C199.66859044 224.47305581 187.02816287 224.40668738 173.97715759 224.32902527 C172.11243849 224.32528662 170.24771739 224.32244368 168.38299561 224.32044983 C163.51855368 224.31288036 158.65423467 224.29329078 153.7898407 224.27104187 C148.80867678 224.2504379 143.82749264 224.24141726 138.84629822 224.23136902 C129.10469957 224.21003736 119.36322375 224.17491123 109.62168884 224.13371277 C109.62168884 229.41371277 109.62168884 234.69371277 109.62168884 240.13371277 C113.28971619 240.06410339 113.28971619 240.06410339 117.03184509 239.99308777 C119.41813586 239.96183192 121.80440323 239.93757867 124.19078064 239.91398621 C125.84062521 239.8939548 127.49039954 239.86672135 129.13999939 239.83195496 C131.52079158 239.78305919 133.90063984 239.76065997 136.28184509 239.74308777 C137.01129837 239.72244263 137.74075165 239.70179749 138.49230957 239.68052673 C144.60577067 239.67788887 148.82519716 241.51278559 153.36387634 245.76652527 C157.03819059 250.60648403 158.22053037 252.94568365 157.62168884 259.13371277 C155.36331094 264.16586602 152.29800429 268.13607466 147.62168884 271.13371277 C144.81479621 272.01052007 142.27866128 272.26226148 139.34669495 272.27415466 C138.50003769 272.27986481 137.65338043 272.28557495 136.78106689 272.29145813 C135.86044968 272.29257599 134.93983246 272.29369385 133.99131775 272.29484558 C133.01526077 272.29981049 132.0392038 272.30477539 131.03356934 272.30989075 C127.80512283 272.32449416 124.57672545 272.33131091 121.34825134 272.33683777 C119.10389708 272.34259015 116.85954283 272.34834788 114.6151886 272.35411072 C109.90934521 272.36461513 105.20351887 272.37046165 100.49766541 272.37394714 C94.46951906 272.37943457 88.44159828 272.40347045 82.41352272 272.4319191 C77.77753541 272.45054624 73.14160247 272.4557511 68.5055809 272.45728302 C66.28324015 272.46030924 64.06090036 272.46833673 61.83859634 272.4814682 C58.72917263 272.49853201 55.6203006 272.49664759 52.510849 272.49015808 C51.59428024 272.49937286 50.67771149 272.50858765 49.73336792 272.51808167 C43.89901781 272.47995835 39.42669776 271.75216527 34.97715759 267.59855652 C31.11603381 262.54939465 30.04047203 259.49356595 30.62168884 253.13371277 C31.43703706 248.690065 32.92108256 245.1851769 36.59043884 242.41496277 C43.53170073 238.30182578 52.34825927 239.6212944 60.12168884 239.82121277 C61.81957271 239.8463246 63.5174923 239.86913269 65.21543884 239.88957214 C69.35246449 239.94007294 73.48448167 240.03794408 77.62168884 240.13371277 C77.62168884 234.85371277 77.62168884 229.57371277 77.62168884 224.13371277 C73.82386902 224.15727844 73.82386902 224.15727844 69.94932556 224.18132019 C61.53560137 224.23127729 53.12187021 224.26426541 44.70803642 224.28914928 C39.61227882 224.30473127 34.51667461 224.32583132 29.42100525 224.36003113 C24.49319601 224.39289318 19.56553329 224.41062177 14.63762283 224.4183445 C12.76797813 224.42384024 10.89834044 224.43457039 9.028759 224.45090294 C-12.31670523 224.62977101 -29.9050173 221.40938051 -46.19081116 206.57121277 C-46.91268616 205.76683777 -47.63456116 204.96246277 -48.37831116 204.13371277 C-48.87975647 203.57812683 -49.38120178 203.02254089 -49.89784241 202.45011902 C-57.37831116 193.98681496 -57.37831116 193.98681496 -57.37831116 190.13371277 C-58.03831116 190.13371277 -58.69831116 190.13371277 -59.37831116 190.13371277 C-60.18551433 188.22353732 -60.97304955 186.3050506 -61.75331116 184.38371277 C-62.19417053 183.31636902 -62.63502991 182.24902527 -63.08924866 181.14933777 C-66.18725351 172.42549016 -66.67671168 163.12963514 -66.65296936 153.95597839 C-66.65808029 152.9103624 -66.66319122 151.8647464 -66.66845703 150.78744507 C-66.6822235 147.3715575 -66.68140642 143.95587457 -66.67909241 140.53996277 C-66.68298572 138.14205349 -66.68732168 135.7441449 -66.69207764 133.34623718 C-66.69951148 128.33673357 -66.69926866 123.32730048 -66.69398499 118.3177948 C-66.6881864 111.92276719 -66.70514492 105.52802883 -66.72832966 99.13304901 C-66.74311262 94.18628779 -66.74393261 89.23959556 -66.74081993 84.29281616 C-66.74133059 81.9358869 -66.74651991 79.57895352 -66.75663185 77.2220459 C-66.84560492 53.59200186 -66.84560492 53.59200186 -63.37831116 44.13371277 C-63.0803212 43.31304825 -62.78233124 42.49238373 -62.47531128 41.64685059 C-61.67715707 39.5433669 -60.79899277 37.49864929 -59.87831116 35.44621277 C-59.58311584 34.7456073 -59.28792053 34.04500183 -58.98377991 33.32316589 C-58.20372126 31.55171113 -57.29959721 29.83599813 -56.37831116 28.13371277 C-55.38831116 27.80371277 -54.39831116 27.47371277 -53.37831116 27.13371277 C-53.37831116 26.47371277 -53.37831116 25.81371277 -53.37831116 25.13371277 C-52.71831116 25.13371277 -52.05831116 25.13371277 -51.37831116 25.13371277 C-51.11920959 24.55234558 -50.86010803 23.97097839 -50.59315491 23.37199402 C-44.25296049 11.69054257 -30.96490198 5.93706429 -18.95643616 2.07902527 C-12.6417088 0.41072394 -6.50633912 -0.01339606 0 0 Z " fill="#9B8BAA" transform="translate(162.37831115722656,31.866287231445313)"/>
<path d="M0 0 C0.81689708 -0.00226556 1.63379415 -0.00453111 2.47544569 -0.00686532 C5.19876854 -0.01316942 7.92204116 -0.01237826 10.64537048 -0.0115509 C12.60395878 -0.01454472 14.56254649 -0.01794777 16.52113342 -0.02172852 C21.83347613 -0.03055223 27.14580273 -0.03290601 32.45815206 -0.0335443 C35.78186093 -0.03425598 39.10556574 -0.0363926 42.42927361 -0.03904152 C54.03858067 -0.04829113 65.64787626 -0.05237708 77.25718689 -0.05158997 C88.05489504 -0.05099 98.8525531 -0.06152693 109.65024859 -0.07733363 C118.93800752 -0.09044222 128.22575016 -0.09577244 137.51351827 -0.09513456 C143.05271156 -0.09488045 148.59186037 -0.09768306 154.13104439 -0.10831261 C159.34723897 -0.11804898 164.56334706 -0.11803505 169.77954483 -0.11079597 C171.6845519 -0.10975683 173.58956451 -0.11207277 175.49456215 -0.11815643 C196.98744617 -0.18229915 217.25283622 1.8031993 233.49668884 17.69621277 C234.55446072 18.82719559 235.59740221 19.9723169 236.62168884 21.13371277 C237.31198181 21.90715027 237.31198181 21.90715027 238.01622009 22.69621277 C253.2564491 40.37672014 254.08069867 58.56394523 253.98497009 80.82511902 C253.98445046 83.2215983 253.98497214 85.61807802 253.98648071 88.01455688 C253.98639139 93.01812671 253.97604246 98.0215341 253.95787048 103.02507019 C253.9351728 109.41217882 253.93464592 115.79905082 253.94138813 122.1861887 C253.94474236 127.12866285 253.93807087 132.07108386 253.9282589 137.0135479 C253.92443261 139.3676774 253.92324791 141.72181283 253.92484474 144.0759449 C253.92521898 147.37469208 253.91249579 150.67314495 253.89634705 153.97184753 C253.90006317 155.40534294 253.90006317 155.40534294 253.90385437 156.86779785 C253.83032449 166.36261182 252.63467409 175.57595901 248.99668884 184.38371277 C248.55067322 185.48199402 248.10465759 186.58027527 247.64512634 187.71183777 C247.30739197 188.51105652 246.96965759 189.31027527 246.62168884 190.13371277 C245.96168884 190.13371277 245.30168884 190.13371277 244.62168884 190.13371277 C244.31231384 191.12371277 244.31231384 191.12371277 243.99668884 192.13371277 C237.97532108 205.27124243 225.45890155 215.23440834 212.24668884 220.44621277 C199.66859044 224.47305581 187.02816287 224.40668738 173.97715759 224.32902527 C172.11243849 224.32528662 170.24771739 224.32244368 168.38299561 224.32044983 C163.51855368 224.31288036 158.65423467 224.29329078 153.7898407 224.27104187 C148.80867678 224.2504379 143.82749264 224.24141726 138.84629822 224.23136902 C129.10469957 224.21003736 119.36322375 224.17491123 109.62168884 224.13371277 C109.62168884 229.41371277 109.62168884 234.69371277 109.62168884 240.13371277 C113.28971619 240.06410339 113.28971619 240.06410339 117.03184509 239.99308777 C119.41813586 239.96183192 121.80440323 239.93757867 124.19078064 239.91398621 C125.84062521 239.8939548 127.49039954 239.86672135 129.13999939 239.83195496 C131.52079158 239.78305919 133.90063984 239.76065997 136.28184509 239.74308777 C137.01129837 239.72244263 137.74075165 239.70179749 138.49230957 239.68052673 C144.60577067 239.67788887 148.82519716 241.51278559 153.36387634 245.76652527 C157.03819059 250.60648403 158.22053037 252.94568365 157.62168884 259.13371277 C155.36331094 264.16586602 152.29800429 268.13607466 147.62168884 271.13371277 C144.81479621 272.01052007 142.27866128 272.26226148 139.34669495 272.27415466 C138.50003769 272.27986481 137.65338043 272.28557495 136.78106689 272.29145813 C135.86044968 272.29257599 134.93983246 272.29369385 133.99131775 272.29484558 C133.01526077 272.29981049 132.0392038 272.30477539 131.03356934 272.30989075 C127.80512283 272.32449416 124.57672545 272.33131091 121.34825134 272.33683777 C119.10389708 272.34259015 116.85954283 272.34834788 114.6151886 272.35411072 C109.90934521 272.36461513 105.20351887 272.37046165 100.49766541 272.37394714 C94.46951906 272.37943457 88.44159828 272.40347045 82.41352272 272.4319191 C77.77753541 272.45054624 73.14160247 272.4557511 68.5055809 272.45728302 C66.28324015 272.46030924 64.06090036 272.46833673 61.83859634 272.4814682 C58.72917263 272.49853201 55.6203006 272.49664759 52.510849 272.49015808 C51.59428024 272.49937286 50.67771149 272.50858765 49.73336792 272.51808167 C43.89901781 272.47995835 39.42669776 271.75216527 34.97715759 267.59855652 C31.11603381 262.54939465 30.04047203 259.49356595 30.62168884 253.13371277 C31.43703706 248.690065 32.92108256 245.1851769 36.59043884 242.41496277 C43.53170073 238.30182578 52.34825927 239.6212944 60.12168884 239.82121277 C61.81957271 239.8463246 63.5174923 239.86913269 65.21543884 239.88957214 C69.35246449 239.94007294 73.48448167 240.03794408 77.62168884 240.13371277 C77.62168884 234.85371277 77.62168884 229.57371277 77.62168884 224.13371277 C73.82386902 224.15727844 73.82386902 224.15727844 69.94932556 224.18132019 C61.53560137 224.23127729 53.12187021 224.26426541 44.70803642 224.28914928 C39.61227882 224.30473127 34.51667461 224.32583132 29.42100525 224.36003113 C24.49319601 224.39289318 19.56553329 224.41062177 14.63762283 224.4183445 C12.76797813 224.42384024 10.89834044 224.43457039 9.028759 224.45090294 C-12.31670523 224.62977101 -29.9050173 221.40938051 -46.19081116 206.57121277 C-46.91268616 205.76683777 -47.63456116 204.96246277 -48.37831116 204.13371277 C-48.87975647 203.57812683 -49.38120178 203.02254089 -49.89784241 202.45011902 C-57.37831116 193.98681496 -57.37831116 193.98681496 -57.37831116 190.13371277 C-58.03831116 190.13371277 -58.69831116 190.13371277 -59.37831116 190.13371277 C-60.18551433 188.22353732 -60.97304955 186.3050506 -61.75331116 184.38371277 C-62.19417053 183.31636902 -62.63502991 182.24902527 -63.08924866 181.14933777 C-66.18725351 172.42549016 -66.67671168 163.12963514 -66.65296936 153.95597839 C-66.65808029 152.9103624 -66.66319122 151.8647464 -66.66845703 150.78744507 C-66.6822235 147.3715575 -66.68140642 143.95587457 -66.67909241 140.53996277 C-66.68298572 138.14205349 -66.68732168 135.7441449 -66.69207764 133.34623718 C-66.69951148 128.33673357 -66.69926866 123.32730048 -66.69398499 118.3177948 C-66.6881864 111.92276719 -66.70514492 105.52802883 -66.72832966 99.13304901 C-66.74311262 94.18628779 -66.74393261 89.23959556 -66.74081993 84.29281616 C-66.74133059 81.9358869 -66.74651991 79.57895352 -66.75663185 77.2220459 C-66.84560492 53.59200186 -66.84560492 53.59200186 -63.37831116 44.13371277 C-63.0803212 43.31304825 -62.78233124 42.49238373 -62.47531128 41.64685059 C-61.67715707 39.5433669 -60.79899277 37.49864929 -59.87831116 35.44621277 C-59.58311584 34.7456073 -59.28792053 34.04500183 -58.98377991 33.32316589 C-58.20372126 31.55171113 -57.29959721 29.83599813 -56.37831116 28.13371277 C-55.38831116 27.80371277 -54.39831116 27.47371277 -53.37831116 27.13371277 C-53.37831116 26.47371277 -53.37831116 25.81371277 -53.37831116 25.13371277 C-52.71831116 25.13371277 -52.05831116 25.13371277 -51.37831116 25.13371277 C-51.11920959 24.55234558 -50.86010803 23.97097839 -50.59315491 23.37199402 C-44.25296049 11.69054257 -30.96490198 5.93706429 -18.95643616 2.07902527 C-12.6417088 0.41072394 -6.50633912 -0.01339606 0 0 Z M-23.62831116 39.00871277 C-25.09010803 40.30422058 -25.09010803 40.30422058 -26.58143616 41.62590027 C-36.65014247 53.16901902 -35.09622126 67.66532715 -35.00721741 82.01652527 C-35.00804726 84.44164639 -35.01051102 86.86676744 -35.01452637 89.29188538 C-35.01737469 94.35701061 -35.00277479 99.42169128 -34.97523499 104.48674011 C-34.94111822 110.96057409 -34.9471923 117.43361569 -34.96589756 123.90748787 C-34.97649257 128.90911907 -34.96750746 133.91056761 -34.95251274 138.91218185 C-34.94735135 141.29866365 -34.94778775 143.68516469 -34.95405769 146.07164383 C-34.95954147 149.41192065 -34.93903347 152.75108271 -34.91175842 156.0912323 C-34.9182843 157.06500824 -34.92481018 158.03878418 -34.93153381 159.04206848 C-34.7934069 169.05017526 -31.5296524 176.88311183 -24.67127991 184.15324402 C-17.76283792 190.12016069 -10.24687574 192.28299258 -1.30897522 192.28088379 C-0.47704494 192.28456048 0.35488535 192.28823717 1.21202564 192.29202527 C4.01004457 192.30307072 6.80802637 192.30690746 9.60606384 192.31071472 C11.60833861 192.31697888 13.6106122 192.32362564 15.61288452 192.33062744 C22.19914437 192.35168146 28.78540449 192.36203325 35.37168884 192.37199402 C37.6395621 192.37604152 39.90743523 192.38015844 42.17530823 192.3843441 C52.83321439 192.40340121 63.49111362 192.41762936 74.14903355 192.42595607 C86.44502505 192.43572128 98.74083618 192.46202001 111.03676414 192.50245696 C120.54350116 192.53264606 130.05018658 192.54742773 139.5569706 192.55073708 C145.23312503 192.553085 150.90908689 192.5620116 156.58518982 192.58719826 C161.93024968 192.61053173 167.27499093 192.6146909 172.62008858 192.60443687 C174.57635116 192.60394264 176.53262969 192.61022986 178.48884392 192.62399292 C192.01419706 192.71378534 203.37563906 192.26591623 213.67637634 182.42668152 C218.36224541 176.90337802 221.72966301 169.95993554 221.76885986 162.66421509 C221.77601517 161.74898575 221.78317047 160.83375641 221.7905426 159.89079285 C221.79323151 158.88870789 221.79592041 157.88662292 221.7986908 156.85417175 C221.80526199 155.79690384 221.81183319 154.73963593 221.81860352 153.65032959 C221.83834892 150.14348786 221.85000374 146.63668904 221.85997009 143.12980652 C221.86404562 141.93145739 221.86812115 140.73310825 221.87232018 139.49844551 C221.89318912 133.15217892 221.90748564 126.80593399 221.91685486 120.4596405 C221.92790328 113.91502208 221.9622832 107.37074515 222.00202656 100.82624722 C222.02822047 95.78605533 222.03654934 90.74594434 222.04013634 85.70569038 C222.04499737 83.2940599 222.05659746 80.8824329 222.07517433 78.47086906 C222.09961718 75.0866462 222.09859054 71.70330029 222.09165955 68.3190155 C222.1044696 67.33110016 222.11727966 66.34318481 222.13047791 65.32533264 C222.05828835 55.60518417 219.10586405 47.88726656 212.41465759 40.82511902 C208.05798287 36.71522761 204.56048818 34.82427083 198.62168884 34.13371277 C198.29168884 33.80371277 197.96168884 33.47371277 197.62168884 33.13371277 C192.11645291 32.27104834 186.7672763 31.98837156 181.20336914 32 C179.98982613 31.99660167 179.98982613 31.99660167 178.7517671 31.99313468 C176.06133881 31.98684282 173.37096153 31.98762092 170.68052673 31.9884491 C168.74323461 31.98545466 166.80594309 31.98205147 164.86865234 31.97827148 C159.62075206 31.96945771 154.3728681 31.96709452 149.12496114 31.9664557 C145.84366579 31.96574387 142.56237457 31.96360707 139.28108025 31.96095848 C127.8266613 31.95171476 116.37225397 31.9476225 104.91783142 31.94841003 C94.25121932 31.94901103 83.58465776 31.93845239 72.91805845 31.92266637 C63.74925247 31.9095819 54.58046299 31.9042265 45.41164774 31.90486544 C39.94025706 31.9051201 34.46891134 31.90228645 28.99752998 31.89168739 C23.851924 31.88199082 18.70640585 31.88193795 13.56079674 31.88920403 C11.67626441 31.89024782 9.79172656 31.88789918 7.90720367 31.88184357 C5.3270308 31.87409178 2.74715888 31.87878934 0.16699219 31.88647461 C-0.57174304 31.88133105 -1.31047828 31.87618748 -2.07159942 31.87088805 C-10.54730296 31.92635715 -17.23695131 33.11293965 -23.62831116 39.00871277 Z " fill="#020203" transform="translate(162.37831115722656,31.866287231445313)"/>
<path d="M0 0 C2.19130534 0.69579454 2.19130534 0.69579454 4 1 C4 1.66 4 2.32 4 3 C4.72445312 3.2475 5.44890625 3.495 6.1953125 3.75 C14.55987573 7.47793905 21.81404105 15.97460189 26 24 C26 25.32 26 26.64 26 28 C26.66 28 27.32 28 28 28 C33.35999148 43.1697872 33.3241504 57.15078343 27 72 C26.69707031 72.75925781 26.39414062 73.51851563 26.08203125 74.30078125 C19.96421005 88.14870144 8.2568276 97.8564246 -5.640625 103.23828125 C-8.07716123 104.02491132 -10.48793334 104.51693031 -13 105 C-12.31075439 105.03963867 -11.62150879 105.07927734 -10.91137695 105.12011719 C11.76338284 106.49124607 29.97500374 109.6218501 47 126 C60.0757077 140.86287191 64.20044731 157.73270749 64.375 177 C64.38901855 178.08700195 64.40303711 179.17400391 64.41748047 180.29394531 C64.37718779 186.94533652 63.97516961 191.77464567 59.28125 196.86328125 C58.6934375 197.34152344 58.105625 197.81976563 57.5 198.3125 C56.9121875 198.80363281 56.324375 199.29476562 55.71875 199.80078125 C52.25310718 202.21885476 49.08692541 202.13118573 44.99848938 202.14717102 C43.11646065 202.15790398 43.11646065 202.15790398 41.19641113 202.16885376 C39.8032229 202.17169401 38.41003441 202.17440574 37.0168457 202.17700195 C35.55156798 202.18326759 34.08629185 202.18991448 32.62101746 202.19691467 C27.80594996 202.21794825 22.99088218 202.22831745 18.17578125 202.23828125 C16.51704581 202.24232928 14.85831053 202.24644622 13.19957542 202.25063133 C5.40517493 202.26968268 -2.38921611 202.28391296 -10.18363541 202.2922433 C-19.17432708 202.30201126 -28.16477226 202.32831938 -37.15537709 202.36874419 C-44.10837342 202.39893177 -51.0612992 202.41371474 -58.01435977 202.41702431 C-62.16517341 202.4193721 -66.3157237 202.42829675 -70.4664669 202.45348549 C-74.37437335 202.47681718 -78.28184404 202.48097921 -82.18980217 202.47072411 C-83.6200226 202.47022984 -85.05026485 202.476518 -86.48041916 202.49028015 C-94.38241639 202.562033 -100.32252202 202.45864824 -107 198 C-114.96825884 187.98859787 -112.76927852 172.78659578 -111.81396484 160.63330078 C-109.94135483 145.22145342 -101.29030513 131.10135631 -89.5625 121.25 C-87.72208082 119.81551901 -85.86903052 118.39699799 -84 117 C-83.35417969 116.505 -82.70835937 116.01 -82.04296875 115.5 C-71.14975293 107.90560117 -57.48463282 106.07267333 -44.5625 105.4375 C-43.73556641 105.39431641 -42.90863281 105.35113281 -42.05664062 105.30664062 C-40.03790451 105.20161967 -38.01897049 105.10041441 -36 105 C-36.73863281 104.79246094 -37.47726562 104.58492188 -38.23828125 104.37109375 C-53.13741287 99.84645276 -65.06688811 91.27345984 -72.72265625 77.53125 C-79.72136953 63.66224019 -82.2649771 49.19422362 -78.03125 34.04296875 C-73.40406738 20.38927459 -64.43274165 8.57033394 -52 1 C-48.69921875 0.28515625 -48.69921875 0.28515625 -46 0 C-46 -0.66 -46 -1.32 -46 -2 C-41.545 -2.495 -41.545 -2.495 -37 -3 C-37 -3.66 -37 -4.32 -37 -5 C-24.99789232 -7.73075478 -10.48367233 -6.73296932 0 0 Z " fill="#040302" transform="translate(416,278)"/>
<path d="M0 0 C1.07636719 -0.01160156 2.15273437 -0.02320313 3.26171875 -0.03515625 C13.18984421 0.00112192 20.65979911 2.40649948 29.0625 7.5625 C29.71089844 7.95904785 30.35929687 8.3555957 31.02734375 8.76416016 C44.80626931 17.43478424 52.44648404 30.15675976 56.08203125 45.89453125 C58.47095744 60.07180349 54.6697887 75.62069377 46.5 87.375 C37.63183001 98.915536 26.47487926 106.54236844 12.5 110.375 C13.6859375 110.40078125 14.871875 110.4265625 16.09375 110.453125 C38.34031719 111.1443568 55.58074747 116.29377833 71.5 132.375 C72.180625 133.03371094 72.86125 133.69242188 73.5625 134.37109375 C85.76409036 147.03569088 89.04287939 164.20225885 88.9375 181.1875 C88.95748047 182.34958984 88.97746094 183.51167969 88.99804688 184.70898438 C88.99405248 191.7351317 88.35190493 196.44041953 84.5 202.375 C79.1570727 206.71612843 75.14098626 207.49567681 68.41619873 207.52217102 C66.54472923 207.53290398 66.54472923 207.53290398 64.63545227 207.54385376 C63.25534083 207.54669382 61.87522911 207.54940557 60.49511719 207.55200195 C59.03954405 207.55826948 57.58397251 207.56491654 56.12840271 207.57191467 C51.35123807 207.59292238 46.57407323 207.60331372 41.796875 207.61328125 C40.15020989 207.61732998 38.50354495 207.62144694 36.85688019 207.62563133 C29.12014822 207.64467548 21.38342576 207.65890835 13.64667487 207.6672433 C4.72504308 207.67701431 -4.19634052 207.70333341 -13.11788487 207.74374419 C-20.01994638 207.77393157 -26.92193684 207.78871464 -33.82406306 207.79202431 C-37.94356353 207.79437173 -42.06279861 207.80329182 -46.18222809 207.82848549 C-50.05978009 207.85181748 -53.93689291 207.85597911 -57.81449699 207.84572411 C-59.23343049 207.84522988 -60.65238599 207.85151686 -62.07125282 207.86528015 C-69.94806704 207.93737961 -75.84171475 207.81161281 -82.5 203.375 C-90.35223982 193.50936535 -88.15806037 179.34380916 -87.5 167.375 C-86.88006678 162.12220003 -85.45184175 157.28825683 -83.5 152.375 C-83.09910156 151.35019531 -82.69820312 150.32539063 -82.28515625 149.26953125 C-75.25298448 133.51338986 -62.41550625 121.82962198 -46.5 115.375 C-38.86050014 112.56247908 -31.46633493 111.70026483 -23.375 111.1875 C-22.22773437 111.10564453 -21.08046875 111.02378906 -19.8984375 110.93945312 C-17.09949471 110.74119468 -14.30027546 110.55325753 -11.5 110.375 C-12.30824219 110.14006836 -13.11648437 109.90513672 -13.94921875 109.66308594 C-29.46731758 105.05317322 -40.12912493 96.04010393 -48.5 82.375 C-55.16963571 70.05641162 -57.80032531 56.40791469 -54.1796875 42.64453125 C-53.84324219 41.52111328 -53.84324219 41.52111328 -53.5 40.375 C-53.25507812 39.51261719 -53.01015625 38.65023437 -52.7578125 37.76171875 C-48.76458376 25.26962707 -39.2004847 12.75951106 -27.5 6.375 C-24.0625 5.5625 -24.0625 5.5625 -21.5 5.375 C-21.5 4.715 -21.5 4.055 -21.5 3.375 C-14.29750917 0.3463664 -7.75298727 -0.08356513 0 0 Z " fill="#040302" transform="translate(119.5,272.625)"/>
<path d="M0 0 C2.19130534 0.69579454 2.19130534 0.69579454 4 1 C4 1.66 4 2.32 4 3 C4.72445312 3.2475 5.44890625 3.495 6.1953125 3.75 C14.55987573 7.47793905 21.81404105 15.97460189 26 24 C26 25.32 26 26.64 26 28 C26.66 28 27.32 28 28 28 C33.35999148 43.1697872 33.3241504 57.15078343 27 72 C26.54560547 73.13888672 26.54560547 73.13888672 26.08203125 74.30078125 C20.47186758 86.99959937 9.77661133 96.71720585 -2.8125 102.25 C-17.98554677 107.89578484 -34.14029289 107.25854938 -48.8984375 100.71484375 C-63.15642818 92.64131275 -73.4918903 80.32048126 -77.9765625 64.5703125 C-81.58785242 49.14639201 -80.26357555 35.98497259 -72.7890625 21.8828125 C-67.71076229 13.69987461 -60.25224666 6.02481792 -52 1 C-48.69921875 0.28515625 -48.69921875 0.28515625 -46 0 C-46 -0.66 -46 -1.32 -46 -2 C-41.545 -2.495 -41.545 -2.495 -37 -3 C-37 -3.66 -37 -4.32 -37 -5 C-24.99789232 -7.73075478 -10.48367233 -6.73296932 0 0 Z " fill="#030203" transform="translate(416,278)"/>
<path d="M0 0 C1.07636719 -0.01160156 2.15273437 -0.02320313 3.26171875 -0.03515625 C13.18984421 0.00112192 20.65979911 2.40649948 29.0625 7.5625 C29.71089844 7.95904785 30.35929687 8.3555957 31.02734375 8.76416016 C44.80626931 17.43478424 52.44648404 30.15675976 56.08203125 45.89453125 C58.47095744 60.07180349 54.6697887 75.62069377 46.5 87.375 C36.60058298 100.25754268 23.55426346 108.70249387 7.5 111.375 C-7.40227792 112.81491742 -21.347745 109.13967949 -33.5 100.375 C-45.1445958 90.75120176 -53.88589463 76.51576303 -55.5 61.375 C-55.94928029 54.09092385 -55.59584954 47.37321026 -53.5 40.375 C-53.25507812 39.51261719 -53.01015625 38.65023437 -52.7578125 37.76171875 C-48.76458376 25.26962707 -39.2004847 12.75951106 -27.5 6.375 C-24.0625 5.5625 -24.0625 5.5625 -21.5 5.375 C-21.5 4.715 -21.5 4.055 -21.5 3.375 C-14.29750917 0.3463664 -7.75298727 -0.08356513 0 0 Z " fill="#030203" transform="translate(119.5,272.625)"/>
<path d="M0 0 C4.99231237 2.10202626 7.18423081 5.09433066 9.30078125 9.92578125 C10.63724785 13.89038329 10.85612589 17.0470861 9.15234375 20.93359375 C4.63709416 28.78553626 -2.42965369 34.64276715 -9.23828125 40.45703125 C-9.81964844 40.96621094 -10.40101563 41.47539062 -11 42 C-11.59167969 42.47824219 -12.18335938 42.95648438 -12.79296875 43.44921875 C-14.21385526 44.91337029 -14.21385526 44.91337029 -13.84838867 46.81665039 C-12.69491329 49.78514832 -10.94776642 51.30467785 -8.6328125 53.484375 C-7.30443359 54.76441406 -7.30443359 54.76441406 -5.94921875 56.0703125 C-4.07831425 57.84547223 -2.2033565 59.6163706 -0.32421875 61.3828125 C5.18533445 66.70844738 9.70185127 71.09246358 10.10766602 79.13330078 C9.99220293 84.06513483 7.90147045 86.98037971 4.66796875 90.5546875 C1.04623035 93.69296199 -2.06063859 94.39992904 -6.8724823 94.24349976 C-14.6906553 93.34869018 -19.31403888 89.42397542 -24.60546875 84.0234375 C-25.29256424 83.33875397 -25.97965973 82.65407043 -26.68757629 81.94863892 C-28.13137079 80.50386934 -29.56900681 79.0529218 -31.00073242 77.59619141 C-33.17595661 75.38672511 -35.37408393 73.20218828 -37.57617188 71.01953125 C-38.98320712 69.6055945 -40.38885299 68.19027351 -41.79296875 66.7734375 C-42.76655586 65.80729019 -42.76655586 65.80729019 -43.7598114 64.82162476 C-48.91686861 59.53165697 -53.4073595 53.81923877 -54.5625 46.375 C-53.23663734 38.41982407 -47.80799165 33.38418165 -42.27734375 27.94921875 C-41.53545303 27.2092012 -40.79356232 26.46918365 -40.02919006 25.70674133 C-38.46852564 24.15276882 -36.90428267 22.60238284 -35.33666992 21.05541992 C-32.93467504 18.68471184 -30.54363752 16.30337684 -28.15429688 13.91992188 C-26.63343595 12.40822668 -25.11197237 10.8971375 -23.58984375 9.38671875 C-22.51632912 8.31957893 -22.51632912 8.31957893 -21.42112732 7.23088074 C-20.41977501 6.24393974 -20.41977501 6.24393974 -19.39819336 5.23706055 C-18.81291367 4.65860886 -18.22763397 4.08015717 -17.62461853 3.48417664 C-12.3693707 -1.31677565 -6.76665388 -0.64999877 0 0 Z " fill="#030304" transform="translate(198,97)"/>
<path d="M0 0 C7.82676367 4.27741735 13.61163837 11.87623668 19.34375 18.5546875 C24.22218069 24.03258636 29.41619282 29.26450456 35.125 33.875 C39.23978547 37.33957173 40.94121698 40.68991913 41.625 46.0625 C40.76968341 53.02722083 37.02054402 57.08435607 32.12255859 61.72167969 C30.30233468 63.51204881 28.64631977 65.35754067 26.9921875 67.30078125 C23.04872711 71.84279792 18.87518623 76.12103583 14.625 80.375 C13.89603516 81.11621094 13.16707031 81.85742188 12.41601562 82.62109375 C6.20604216 88.84783582 1.05284436 93.66995304 -8.125 94 C-11.77174705 93.95182633 -14.35353019 93.84609069 -17.3125 91.625 C-21.18255598 86.98093282 -23.21885091 82.6302256 -22.75 76.5 C-20.43000902 66.91070393 -12.2009018 60.96231715 -5.28320312 54.4375 C-4.44080078 53.62023437 -3.59839844 52.80296875 -2.73046875 51.9609375 C-1.95469482 51.22407715 -1.1789209 50.4872168 -0.37963867 49.72802734 C1.41943226 47.77878615 1.41943226 47.77878615 1.08496094 45.51123047 C-0.36062001 42.4729937 -2.87297051 40.53620513 -5.375 38.375 C-6.46979937 37.39831041 -7.56354581 36.42043932 -8.65625 35.44140625 C-9.19378906 34.9633252 -9.73132813 34.48524414 -10.28515625 33.99267578 C-21.1102226 24.29925799 -21.1102226 24.29925799 -22.8125 18.625 C-23.03919714 12.33930667 -22.13633512 7.40397565 -17.8125 2.625 C-12.23826952 -1.80118798 -6.69963922 -2.82514907 0 0 Z " fill="#030304" transform="translate(326.8125,97.375)"/>
<path d="M0 0 C1.35180947 -0.00270276 2.70361702 -0.00659164 4.05541992 -0.01159668 C6.87274902 -0.01745514 9.68956685 -0.00904885 12.50683594 0.00976562 C16.09094455 0.03255417 19.67385451 0.01941111 23.25791931 -0.00452423 C26.04464504 -0.01908252 28.8310936 -0.01433092 31.61782837 -0.00401306 C33.57294507 -0.00010408 35.52807322 -0.01210269 37.4831543 -0.02453613 C48.56573937 0.0911153 56.70461817 2.57118183 64.83203125 10.23828125 C70.567758 16.87905364 72.8125 23.87626566 72.8125 32.53125 C35.8525 32.53125 -1.1075 32.53125 -39.1875 32.53125 C-38.03962798 19.90465783 -35.87882481 14.49255389 -26.95703125 6.35546875 C-18.31126191 0.66072364 -10.1776438 -0.06472525 0 0 Z " fill="#E8C89D" transform="translate(103.1875,415.46875)"/>
<path d="M0 0 C1.778302 -0.01925285 1.778302 -0.01925285 3.5925293 -0.03889465 C4.87683838 -0.04628159 6.16114746 -0.05366852 7.484375 -0.0612793 C8.14088043 -0.06535482 8.79738586 -0.06943035 9.4737854 -0.07362938 C12.95533938 -0.09448478 16.43685413 -0.10878318 19.91845703 -0.11816406 C23.48796645 -0.12916829 27.05684207 -0.16349848 30.62612915 -0.20333576 C33.3922427 -0.22969492 36.15821043 -0.23787326 38.92443848 -0.24144554 C40.87126608 -0.24859348 42.81799324 -0.27495784 44.76464844 -0.30183411 C56.05041861 -0.27456404 65.07381783 1.99148223 73.28515625 9.98168945 C79.81598605 17.33705287 80.234375 21.67815303 80.234375 32.17700195 C43.604375 32.17700195 6.974375 32.17700195 -30.765625 32.17700195 C-30.765625 22.06610981 -28.00189197 15.51762736 -21.05859375 8.1574707 C-15.03034319 2.95078752 -7.91527524 0.07464863 0 0 Z " fill="#E5B791" transform="translate(366.765625,415.822998046875)"/>
<path d="M0 0 C4.04491475 2.6765287 6.36887281 5.34480055 7.9609375 10.02734375 C8.40401451 15.57572602 7.44593575 18.83884284 4.8359375 23.71484375 C4.09911051 25.12309686 3.36353591 26.53200564 2.62890625 27.94140625 C2.21044434 28.73450195 1.79198242 29.52759766 1.36083984 30.34472656 C-1.13467888 35.12686114 -3.53748737 39.95563739 -5.94744873 44.78131104 C-6.85404955 46.59481868 -7.76396718 48.40663328 -8.67431641 50.21826172 C-11.5798268 56.01246462 -14.43561642 61.82430535 -17.17578125 67.69921875 C-17.66135498 68.73747803 -18.14692871 69.7757373 -18.6472168 70.84545898 C-19.5454247 72.77784276 -20.43431966 74.71459568 -21.31176758 76.65649414 C-24.42270019 83.34930023 -27.87483961 90.11815753 -35.0390625 93.02734375 C-40.84587357 93.51124467 -45.94847628 93.07492308 -51.0390625 90.02734375 C-55.23193092 84.86689031 -56.6694689 80.64661091 -56.0390625 74.02734375 C-54.95292421 71.41474082 -53.69225979 68.96361088 -52.3515625 66.47265625 C-50.70040228 63.39638751 -49.37104808 60.25215094 -48.0390625 57.02734375 C-47.3790625 57.02734375 -46.7190625 57.02734375 -46.0390625 57.02734375 C-45.79518799 56.21885986 -45.55131348 55.41037598 -45.30004883 54.57739258 C-43.77879804 50.29462244 -41.86361094 46.30263725 -39.86328125 42.2265625 C-39.25272636 40.97284599 -39.25272636 40.97284599 -38.62983704 39.69380188 C-37.7700706 37.93049178 -36.90847609 36.16807199 -36.04516602 34.40649414 C-34.73700106 31.73615186 -33.43543691 29.06267077 -32.13476562 26.38867188 C-31.29466365 24.66777693 -30.45418096 22.94706778 -29.61328125 21.2265625 C-29.22975998 20.438759 -28.84623871 19.65095551 -28.45109558 18.83927917 C-26.51429599 14.89495614 -24.52371096 10.982081 -22.44848633 7.10864258 C-22.06195389 6.38534256 -21.67542145 5.66204254 -21.2771759 4.91682434 C-16.53569519 -2.319133 -7.47767019 -3.56693463 0 0 Z " fill="#030203" transform="translate(280.0390625,97.97265625)"/>
<path d="M0 0 C4.21888403 2.42739681 6.78549344 4.84436904 9.5 8.875 C10.098125 9.74125 10.69625 10.6075 11.3125 11.5 C13.6627542 18.17966982 13.51306473 25.24771256 10.8125 31.8125 C7.37070243 38.50287141 1.6666455 43.48611817 -5.5 45.875 C-13.85127656 46.76478593 -20.64120759 45.95197089 -27.5 40.875 C-33.16796772 35.04240251 -35.78455687 29.22246607 -35.9375 21.0625 C-35.8097446 13.42113043 -34.04952796 9.48112636 -28.78515625 4.1328125 C-20.69501884 -3.26691931 -10.05508593 -4.68835341 0 0 Z " fill="#D2B9BA" transform="translate(131.5,306.125)"/>
<path d="M0 0 C4.52175392 3.2183302 8.14013532 7.37386883 10.1953125 12.5625 C11.25603932 21.42794311 10.72477669 29.31423851 5.1953125 36.5625 C-0.43200664 42.10893365 -6.18756262 44.56968041 -14.0546875 45 C-21.01794511 44.83894506 -26.7456723 42.64684866 -31.69140625 37.66015625 C-36.6825403 31.36383461 -38.34702171 25.44238733 -38.18359375 17.4453125 C-37.37841875 11.31934188 -34.53717512 5.77421601 -29.9296875 1.625 C-20.27328245 -4.74822733 -10.35666629 -5.86100729 0 0 Z " fill="#C7ABB1" transform="translate(405.8046875,307.4375)"/>
<path d="M0 0 C3.38118886 5.07178329 3.12679883 10.74615591 3.1328125 16.703125 C3.13410156 17.9303125 3.13539063 19.1575 3.13671875 20.421875 C3.13285156 21.68515625 3.12898437 22.9484375 3.125 24.25 C3.12886719 25.52875 3.13273438 26.8075 3.13671875 28.125 C3.13478516 29.95804687 3.13478516 29.95804687 3.1328125 31.828125 C3.13168457 32.9409082 3.13055664 34.05369141 3.12939453 35.20019531 C3 38 3 38 2 41 C0.37064759 42.37868281 -1.29749607 43.71274093 -3 45 C-3.99 45.99 -3.99 45.99 -5 47 C-5.99 47.33 -6.98 47.66 -8 48 C-8.99 48.99 -8.99 48.99 -10 50 C-13.1871402 50 -16.33438014 49.91790323 -19.51669312 49.77973938 C-35.25409281 49.1318569 -50.94382178 48.89852673 -66.69310379 49.01653099 C-70.53745604 49.04384547 -74.38174557 49.06127868 -78.22616577 49.07600403 C-89.13135462 49.11798416 -100.03642411 49.1666139 -110.94140625 49.24682617 C-117.6715587 49.29621974 -124.40152109 49.32434378 -131.13184738 49.34057045 C-133.67467507 49.35042393 -136.217486 49.36756632 -138.76021194 49.39235497 C-142.30209018 49.42620092 -145.84323367 49.43499152 -149.38525391 49.43823242 C-150.41804977 49.45418457 -151.45084564 49.47013672 -152.51493835 49.48657227 C-158.67628763 49.46094547 -163.3284582 48.4678325 -168.92786217 45.85959339 C-171.08794535 44.8084137 -171.08794535 44.8084137 -174 45 C-178.21949408 32.86895452 -178.57023352 18.56097993 -176 6 C-175.67 6 -175.34 6 -175 6 C-174.9906543 6.80630859 -174.98130859 7.61261719 -174.97167969 8.44335938 C-174.9176896 12.12950585 -174.83409552 15.81442241 -174.75 19.5 C-174.73582031 20.7684375 -174.72164063 22.036875 -174.70703125 23.34375 C-174.5282091 33.36734832 -174.5282091 33.36734832 -170 42 C-162.79593339 46.83904867 -155.86669522 46.56392447 -147.41748047 46.50170898 C-145.94821659 46.50549702 -144.47895629 46.51100105 -143.00970459 46.51808167 C-139.0386744 46.53198807 -135.06807982 46.52090183 -131.09707403 46.50437045 C-126.9332127 46.49047343 -122.76937545 46.49698512 -118.60549927 46.50050354 C-111.61664852 46.5032014 -104.62796994 46.48976464 -97.63916016 46.46655273 C-89.56608131 46.4399248 -81.49328985 46.43820407 -73.42018211 46.4499411 C-65.64176954 46.46072859 -57.86346065 46.45452555 -50.0850563 46.44038582 C-46.77976142 46.43463652 -43.47454265 46.43470031 -40.16924667 46.43945122 C-36.27687846 46.44423172 -32.38482411 46.43407519 -28.49251556 46.41249657 C-27.06631402 46.40694387 -25.64008222 46.40644946 -24.21387863 46.41144943 C-22.26333688 46.41742896 -20.31276471 46.403027 -18.36227417 46.38768005 C-17.2720439 46.38525016 -16.18181362 46.38282026 -15.05854607 46.38031673 C-10.85922991 45.85815026 -7.49242389 44.36126074 -4.35546875 41.5 C-0.31746904 36.31407395 0.1428955 32.65250301 0.09765625 26.26953125 C0.0962413 25.51911057 0.09482635 24.76868988 0.09336853 23.99552917 C0.0877756 21.6011454 0.07522444 19.20685547 0.0625 16.8125 C0.05748408 15.18815239 0.05292134 13.56380332 0.04882812 11.93945312 C0.03780848 7.95959931 0.02054873 3.97981556 0 0 Z " fill="#C39274" transform="translate(479,433)"/>
<path d="M0 0 C1.98 0.495 1.98 0.495 4 1 C3.34 1.33 2.68 1.66 2 2 C1.6596875 3.299375 1.6596875 3.299375 1.3125 4.625 C-0.52207922 9.34248942 -2.6427744 12.31878759 -7 15 C-12.00149161 16.0403659 -16.97840537 15.94829358 -22.06396484 15.88989258 C-23.59719074 15.89774839 -25.13040378 15.90859514 -26.66358948 15.92219543 C-30.81490102 15.94976842 -34.96496155 15.93338658 -39.11624098 15.90734696 C-43.46957285 15.88584501 -47.82282 15.89941525 -52.17617798 15.90763855 C-59.48809505 15.91579181 -66.79951196 15.89516525 -74.11132812 15.85766602 C-82.54980233 15.8147629 -90.98729451 15.81825704 -99.42580831 15.8465336 C-107.55936023 15.87262452 -115.6925493 15.86471961 -123.8260994 15.84183311 C-127.27971971 15.83276184 -130.73301952 15.83564214 -134.18662643 15.84833717 C-138.2598793 15.86183921 -142.33197797 15.84548624 -146.40505791 15.80669975 C-147.89448165 15.79721895 -149.38401059 15.79777295 -150.87341881 15.80944061 C-159.57901863 15.87034384 -166.461701 15.34619648 -173 9 C-173.66 8.01 -174.32 7.02 -175 6 C-171.98773155 7.12960067 -169.4642793 8.33401025 -166.71717834 10.04676819 C-160.64112564 13.07545828 -154.16067778 12.55096365 -147.52514648 12.50170898 C-146.06735717 12.50549713 -144.60957147 12.51100124 -143.15179443 12.51808167 C-139.21168664 12.53198793 -135.27201789 12.52090139 -131.33193469 12.50437045 C-127.19923776 12.49047069 -123.06656505 12.49698552 -118.93385315 12.50050354 C-111.9962765 12.50320148 -105.05887327 12.48976495 -98.12133789 12.46655273 C-90.11076234 12.43993508 -82.10047646 12.43820076 -74.08987182 12.4499411 C-66.36912752 12.4607347 -58.64848757 12.45452008 -50.92775154 12.44038582 C-47.64840274 12.43464078 -44.36913069 12.43469697 -41.08978081 12.43945122 C-37.22613592 12.4442373 -33.36280669 12.43405226 -29.4992218 12.41249657 C-28.08472826 12.40695104 -26.67020425 12.40644281 -25.25570869 12.41144943 C-13.64687565 12.49575613 -13.64687565 12.49575613 -3.6875 7.125 C-1.87458428 4.8420691 -0.91843038 2.75529114 0 0 Z " fill="#C1A376" transform="translate(207,467)"/>
<path d="M0 0 C0.33 0 0.66 0 1 0 C1.0093457 0.80630859 1.01869141 1.61261719 1.02832031 2.44335938 C1.0823104 6.12950585 1.16590448 9.81442241 1.25 13.5 C1.26417969 14.7684375 1.27835937 16.036875 1.29296875 17.34375 C1.47757338 27.36529462 1.47757338 27.36529462 6 36 C13.56169341 41.28014798 21.76392727 40.56867746 30.609375 40.5390625 C32.2250501 40.54898001 33.84071389 40.56092526 35.45635986 40.57479858 C39.68968557 40.60703401 43.92275262 40.61754235 48.15618896 40.62164307 C54.94515884 40.63042941 61.7339179 40.66590797 68.52271271 40.7138176 C70.88922561 40.72638906 73.2554698 40.72564667 75.62200928 40.72354126 C77.07190152 40.73012108 78.52179192 40.73712724 79.97167969 40.74462891 C81.23550476 40.74588776 82.49932983 40.74714661 83.80145264 40.7484436 C86.8055753 40.98470907 88.48308769 41.41308831 91 43 C81.26362039 43.09299956 71.5273478 43.16391624 61.79061317 43.20724869 C57.26861417 43.22805434 52.74692081 43.25624229 48.22509766 43.30175781 C43.85490319 43.34546789 39.48500127 43.36918982 35.11460495 43.37950897 C33.45375341 43.38685547 31.79291647 43.40120073 30.1321907 43.42292023 C14.37076709 43.62070927 14.37076709 43.62070927 6.86166382 39.86126709 C4.88808231 38.79006153 4.88808231 38.79006153 2 39 C-2.21949408 26.86895452 -2.57023352 12.56097993 0 0 Z " fill="#CE9F76" transform="translate(303,439)"/>
<path d="M0 0 C4.49797113 1.68673918 8.72886302 3.81673892 13 6 C13 6.66 13 7.32 13 8 C63.16 8 113.32 8 165 8 C165 8.33 165 8.66 165 9 C145.076427 9.14030488 125.15295458 9.24603696 105.2289896 9.31087303 C95.97744267 9.34178087 86.72620312 9.38390237 77.47485352 9.45263672 C69.40919072 9.51253314 61.34375058 9.55117148 53.27787155 9.56453097 C49.00888143 9.57233752 44.74052817 9.59061955 40.47174263 9.63438034 C36.44885644 9.67528393 32.42686583 9.68763375 28.40379143 9.67864609 C26.93203225 9.68028887 25.46024131 9.69211897 23.98866272 9.71523285 C15.15398748 9.84712295 8.56279527 9.36312761 2 3 C1.34 2.01 0.68 1.02 0 0 Z " fill="#E9BF85" transform="translate(32,473)"/>
<path d="M0 0 C3.90762976 0.41132945 7.16258541 1.41539507 10.75 2.9375 C15.74129929 5.02352934 20.67324376 6.13865218 26 7 C26 7.33 26 7.66 26 8 C10.655 8.495 10.655 8.495 -5 9 C-3.68 8.34 -2.36 7.68 -1 7 C0.75322937 4.46811352 0.75322937 4.46811352 2 2 C1.34 1.34 0.68 0.68 0 0 Z " fill="#D4B8AC" transform="translate(360,376)"/>
<path d="M0 0 C0 3 0 3 -1 5 C-3.5625 5.625 -3.5625 5.625 -6 6 C-6 6.99 -6 7.98 -6 9 C-4.88625 8.773125 -3.7725 8.54625 -2.625 8.3125 C2.65668337 7.6120617 7.07538156 9.21381667 12 11 C12 11.33 12 11.66 12 12 C10.7934375 11.90912109 10.7934375 11.90912109 9.5625 11.81640625 C-2.61378425 10.94857897 -14.80278107 10.47128029 -27 10 C-27 9.67 -27 9.34 -27 9 C-26.05640625 8.85304688 -25.1128125 8.70609375 -24.140625 8.5546875 C-15.20389869 6.99345218 -7.94974985 4.57443707 0 0 Z " fill="#BFACA5" transform="translate(423,374)"/>
<path d="M0 0 C3.01512841 1.00204715 6.02795401 2.00953386 9.03515625 3.03515625 C10.03417969 3.37417969 11.03320312 3.71320313 12.0625 4.0625 C13.06410156 4.40410156 14.06570312 4.74570312 15.09765625 5.09765625 C17.72576662 5.91474036 20.29297224 6.51819873 23 7 C23 7.33 23 7.66 23 8 C21.02193359 8.07347656 21.02193359 8.07347656 19.00390625 8.1484375 C7.58355138 8.61089085 -3.67295892 9.47092368 -15 11 C-9.21012355 7.14008237 -3.93253894 5.56671632 3 6 C2.01 4.02 1.02 2.04 0 0 Z " fill="#DAC5B5" transform="translate(90,376)"/>
<path d="M0 0 C9.17624396 8.25861956 9.11491943 24.6070751 9.8125 36.25 C9.86543213 37.04744629 9.91836426 37.84489258 9.97290039 38.66650391 C10.17762946 42.95619615 10.02874861 46.0834969 8 50 C7.67 50 7.34 50 7 50 C6.98598145 48.84552368 6.98598145 48.84552368 6.97167969 47.66772461 C6.70702684 26.99704371 6.70702684 26.99704371 2 7 C1.30887893 4.67297129 0.65412213 2.33782662 0 0 Z " fill="#E6C7A1" transform="translate(201,418)"/>
<path d="M0 0 C0 4.11288351 -1.73453143 5.60170751 -4.1875 8.875 C-10.15235352 17.12180434 -13.4866319 26.17501559 -16 36 C-16.33 36 -16.66 36 -17 36 C-17 33.36 -17 30.72 -17 28 C-16.34 28 -15.68 28 -15 28 C-15.20625 27.0925 -15.4125 26.185 -15.625 25.25 C-16.02149199 21.8137361 -15.91486441 20.77655339 -14 18 C-13.27296875 17.31744141 -13.27296875 17.31744141 -12.53125 16.62109375 C-10.89367259 14.88743399 -10.17582471 13.43354884 -9.25 11.25 C-7.03906978 6.58631906 -3.80293874 3.4183719 0 0 Z " fill="#DABEA1" transform="translate(321,402)"/>
<path d="M0 0 C0.66 0.33 1.32 0.66 2 1 C1.41992188 1.60585938 0.83984375 2.21171875 0.2421875 2.8359375 C-7.17629317 10.79305373 -12.55280953 18.65842859 -16 29 C-16.66 29 -17.32 29 -18 29 C-17.53199289 24.94393835 -17.12046792 21.53411321 -15 18 C-14.34 18 -13.68 18 -13 18 C-13.061875 17.236875 -13.12375 16.47375 -13.1875 15.6875 C-13 13 -13 13 -11.625 11.1875 C-10 10 -10 10 -8 10 C-7.90847656 9.40703125 -7.81695312 8.8140625 -7.72265625 8.203125 C-6.82767887 5.47465343 -5.66093699 4.52874959 -3.4375 2.75 C-2.79683594 2.22921875 -2.15617187 1.7084375 -1.49609375 1.171875 C-1.00238281 0.78515625 -0.50867188 0.3984375 0 0 Z " fill="#D5BDA0" transform="translate(52,399)"/>
<path d="M0 0 C0.33 0 0.66 0 1 0 C1.0093457 0.80630859 1.01869141 1.61261719 1.02832031 2.44335938 C1.0823104 6.12950585 1.16590448 9.81442241 1.25 13.5 C1.26417969 14.7684375 1.27835937 16.036875 1.29296875 17.34375 C1.48487072 24.71278553 2.0949015 29.71660843 6 36 C6.67884265 37.32717552 7.34858372 38.65914988 8 40 C6.02 39.67 4.04 39.34 2 39 C-2.21949408 26.86895452 -2.57023352 12.56097993 0 0 Z " fill="#E3C19B" transform="translate(303,439)"/>
<path d="M0 0 C4.49797113 1.68673918 8.72886302 3.81673892 13 6 C13 6.66 13 7.32 13 8 C25.87 8 38.74 8 52 8 C52 8.33 52 8.66 52 9 C46.32587991 9.1492082 40.65292122 9.25761893 34.97729492 9.32958984 C33.05000903 9.35961541 31.12285809 9.4004498 29.19604492 9.45263672 C9.86437966 9.96281262 9.86437966 9.96281262 3.42358398 4.59228516 C2 3 2 3 0 0 Z " fill="#E8BD81" transform="translate(32,473)"/>
<path d="M0 0 C-3.13581456 1.63478484 -6.33811072 2.94912034 -9.625 4.25 C-17.00608645 7.29988658 -23.66867876 11.13639414 -30 16 C-30 12 -30 12 -28.81640625 10.41015625 C-26.64078544 8.7211259 -24.42965856 7.60833738 -21.9375 6.4375 C-19.12862483 5.11349276 -17.20354957 4.20354957 -15 2 C-12.79296875 1.3671875 -12.79296875 1.3671875 -10.1875 0.875 C-8.90939453 0.62363281 -8.90939453 0.62363281 -7.60546875 0.3671875 C-5.03156189 0.004448 -2.59538412 -0.06523407 0 0 Z " fill="#7B7187" transform="translate(147,33)"/>
<path d="M0 0 C0.99 0.33 1.98 0.66 3 1 C3 1.99 3 2.98 3 4 C3.99 4.66 4.98 5.32 6 6 C-1.59 6 -9.18 6 -17 6 C-17 5.67 -17 5.34 -17 5 C-15.94039062 4.72285156 -14.88078125 4.44570313 -13.7890625 4.16015625 C-12.40101131 3.794386 -11.01299213 3.42849428 -9.625 3.0625 C-8.92632812 2.88009766 -8.22765625 2.69769531 -7.5078125 2.50976562 C-3.66044902 1.51487491 -3.66044902 1.51487491 0 0 Z " fill="#D9C6B7" transform="translate(144,378)"/>
<path d="M0 0 C0.33 0 0.66 0 1 0 C0.67 12.21 0.34 24.42 0 37 C-0.33 37 -0.66 37 -1 37 C-5.0942858 25.43966361 -2.07329011 11.75535364 0 0 Z " fill="#D5B88F" transform="translate(32,431)"/>
<path d="M0 0 C1.32 0.33 2.64 0.66 4 1 C3.01 1.495 3.01 1.495 2 2 C1.773125 2.86625 1.54625 3.7325 1.3125 4.625 C-0.42892503 9.10295007 -3.26043568 12.01893222 -7 15 C-7.66 15 -8.32 15 -9 15 C-9 13.68 -9 12.36 -9 11 C-8.2575 10.5875 -7.515 10.175 -6.75 9.75 C-2.90582644 7.30370773 -1.74338812 4.10037095 0 0 Z " fill="#D1AE83" transform="translate(207,467)"/>
<path d="M0 0 C0 3 0 3 -1 5 C-3.5625 5.625 -3.5625 5.625 -6 6 C-6 6.99 -6 7.98 -6 9 C-9.375 9.125 -9.375 9.125 -13 9 C-13.66 8.34 -14.32 7.68 -15 7 C-14.16855469 6.66226562 -13.33710938 6.32453125 -12.48046875 5.9765625 C-11.39378906 5.53054688 -10.30710937 5.08453125 -9.1875 4.625 C-8.10855469 4.18414062 -7.02960938 3.74328125 -5.91796875 3.2890625 C-2.89269888 2.0520881 -2.89269888 2.0520881 0 0 Z " fill="#C9AB9D" transform="translate(423,374)"/>
<path d="M0 0 C0 4.03381023 -1.59573562 5.49433637 -4 8.6875 C-4.7425 9.68136719 -5.485 10.67523438 -6.25 11.69921875 C-7.11625 12.83810547 -7.11625 12.83810547 -8 14 C-8.66 13.67 -9.32 13.34 -10 13 C-9.48223379 8.89552608 -7.35372556 7.04300477 -4.4375 4.25 C-3.61121094 3.45078125 -2.78492188 2.6515625 -1.93359375 1.828125 C-1.29550781 1.22484375 -0.65742188 0.6215625 0 0 Z " fill="#756C80" transform="translate(193,132)"/>
<path d="M0 0 C0 0.99 0 1.98 0 3 C-5.61 3.66 -11.22 4.32 -17 5 C-11.65467807 1.43645204 -6.50060481 -0.48754536 0 0 Z " fill="#CEBAA6" transform="translate(92,382)"/>
<path d="M0 0 C0.66 0.99 1.32 1.98 2 3 C3.32054275 4.79673847 4.64544956 6.58998279 5.9765625 8.37890625 C7 10 7 10 7 12 C4.03 11.505 4.03 11.505 1 11 C0.63890458 9.35567294 0.28629924 7.7094792 -0.0625 6.0625 C-0.25972656 5.14597656 -0.45695312 4.22945313 -0.66015625 3.28515625 C-0.77230469 2.53105469 -0.88445312 1.77695312 -1 1 C-0.67 0.67 -0.34 0.34 0 0 Z " fill="#D6AD84" transform="translate(304,467)"/>
<path d="M0 0 C0 3 0 3 -1.19335938 4.44213867 C-1.73798828 4.9291626 -2.28261719 5.41618652 -2.84375 5.91796875 C-3.72353516 6.71557617 -3.72353516 6.71557617 -4.62109375 7.52929688 C-5.24113281 8.07650391 -5.86117187 8.62371094 -6.5 9.1875 C-7.12003906 9.74630859 -7.74007812 10.30511719 -8.37890625 10.88085938 C-9.91268445 12.26125975 -11.45550825 13.63159728 -13 15 C-13 12 -13 12 -11.171875 9.84375 C-10.37265625 9.0703125 -9.5734375 8.296875 -8.75 7.5 C-7.96109375 6.7265625 -7.1721875 5.953125 -6.359375 5.15625 C-4.31444773 3.28737607 -2.25054284 1.6104802 0 0 Z " fill="#0E0B13" transform="translate(125,42)"/>
<path d="M0 0 C0.66 0.33 1.32 0.66 2 1 C-0.18018186 5.48148494 -2.34829356 7.21849541 -7 9 C-7.66 8.67 -8.32 8.34 -9 8 C-6.03 5.36 -3.06 2.72 0 0 Z " fill="#D1B296" transform="translate(351,420)"/>
<path d="M0 0 C4.77373866 4.2963648 6.43306978 8.62203504 7 15 C6.34 15.66 5.68 16.32 5 17 C4.35284867 14.9170757 3.70732834 12.83364461 3.0625 10.75 C2.70285156 9.58984375 2.34320313 8.4296875 1.97265625 7.234375 C1.24933363 4.82910942 0.57457589 2.44345956 0 0 Z " fill="#D7C0A1" transform="translate(201,418)"/>
<path d="M0 0 C-0.1875 2.375 -0.1875 2.375 -1 5 C-3.5625 6.3125 -3.5625 6.3125 -6 7 C-6 3 -6 3 -4.6875 1.25 C-3 0 -3 0 0 0 Z " fill="#D1B1AA" transform="translate(432,369)"/>
<path d="M0 0 C0.66 0.33 1.32 0.66 2 1 C-0.42627519 3.5233262 -2.95372207 5.91757567 -5.5625 8.25 C-6.14128906 8.77078125 -6.72007812 9.2915625 -7.31640625 9.828125 C-9 11 -9 11 -12 11 C-10.75323147 9.72599623 -9.5024352 8.45593346 -8.25 7.1875 C-7.55390625 6.47980469 -6.8578125 5.77210937 -6.140625 5.04296875 C-4.18571355 3.17724121 -2.19661447 1.56830358 0 0 Z " fill="#71697D" transform="translate(145,66)"/>
<path d="M0 0 C1.47726562 0.43119141 1.47726562 0.43119141 2.984375 0.87109375 C3.73203125 1.09925781 4.4796875 1.32742188 5.25 1.5625 C5.25 1.8925 5.25 2.2225 5.25 2.5625 C0.3 2.2325 -4.65 1.9025 -9.75 1.5625 C-9.75 0.9025 -9.75 0.2425 -9.75 -0.4375 C-6.09142468 -1.75284494 -3.66973519 -1.09218309 0 0 Z " fill="#C0A39C" transform="translate(429.75,383.4375)"/>
<path d="M0 0 C0.33 0.99 0.66 1.98 1 3 C-1.64 5.31 -4.28 7.62 -7 10 C-7 7 -7 7 -5.46875 5.17578125 C-4.8190625 4.56089844 -4.169375 3.94601562 -3.5 3.3125 C-2.8503125 2.68988281 -2.200625 2.06726563 -1.53125 1.42578125 C-0.77328125 0.72001953 -0.77328125 0.72001953 0 0 Z " fill="#C9B3AA" transform="translate(164,362)"/>
<path d="M0 0 C4.49797113 1.68673918 8.72886302 3.81673892 13 6 C13 6.33 13 6.66 13 7 C9.83773737 7.46277014 7.75107761 7.49921925 5.04296875 5.69921875 C3.27789416 4.19297384 1.58608787 2.69401693 0 1 C0 0.67 0 0.34 0 0 Z " fill="#D5B27F" transform="translate(32,473)"/>
<path d="M0 0 C0 3.19610552 -0.54671542 4.41717626 -2 7.1875 C-2.37125 7.90292969 -2.7425 8.61835938 -3.125 9.35546875 C-3.41375 9.89816406 -3.7025 10.44085938 -4 11 C-4.33 11 -4.66 11 -5 11 C-5.3125 8.3125 -5.3125 8.3125 -5 5 C-2.5 2.125 -2.5 2.125 0 0 Z " fill="#DCBC9B" transform="translate(344,428)"/>
<path d="M0 0 C0.99 0.33 1.98 0.66 3 1 C1.35 2.65 -0.3 4.3 -2 6 C-3.32 5.34 -4.64 4.68 -6 4 C-3.1875 1.9375 -3.1875 1.9375 0 0 Z " fill="#AD9AA8" transform="translate(385,246)"/>
<path d="M0 0 C0.33 0.66 0.66 1.32 1 2 C4.465 1.505 4.465 1.505 8 1 C8.33 2.65 8.66 4.3 9 6 C6.03 5.01 3.06 4.02 0 3 C0 2.01 0 1.02 0 0 Z " fill="#DAC1B0" transform="translate(167,386)"/>
<path d="M0 0 C0 3 0 3 -1 5 C-3.5625 5.625 -3.5625 5.625 -6 6 C-4.75453595 2.26360784 -3.36595047 1.81243487 0 0 Z M-7 6 C-6.67 6.99 -6.34 7.98 -6 9 C-6.66 9 -7.32 9 -8 9 C-7.67 8.01 -7.34 7.02 -7 6 Z " fill="#D4B3A6" transform="translate(423,374)"/>
<path d="M0 0 C0.33 0.99 0.66 1.98 1 3 C-0.3303125 3.433125 -0.3303125 3.433125 -1.6875 3.875 C-4.50382424 4.83148748 -7.25083156 5.86798946 -10 7 C-3.18421053 0 -3.18421053 0 0 0 Z " fill="#D0BDA0" transform="translate(83,419)"/>
<path d="M0 0 C0 3.39593478 -0.52165948 4.06619881 -2.5 6.6875 C-2.9640625 7.31011719 -3.428125 7.93273437 -3.90625 8.57421875 C-4.2671875 9.04472656 -4.628125 9.51523437 -5 10 C-5.66 9.01 -6.32 8.02 -7 7 C-4.69 4.69 -2.38 2.38 0 0 Z " fill="#D0B3A1" transform="translate(321,402)"/>
<path d="M0 0 C0.66 0.33 1.32 0.66 2 1 C-0.31 3.64 -2.62 6.28 -5 9 C-5.66 8.67 -6.32 8.34 -7 8 C-4.69 5.36 -2.38 2.72 0 0 Z " fill="#2E2620" transform="translate(53,400)"/>
<path d="M0 0 C2.04119788 1.61594832 4.04072937 3.2856382 6 5 C6 5.66 6 6.32 6 7 C4.68 7 3.36 7 2 7 C0.5393715 4.35261084 0 3.10551666 0 0 Z " fill="#D4BE9E" transform="translate(164,423)"/>
<path d="M0 0 C1.32 0.33 2.64 0.66 4 1 C3.01 1.495 3.01 1.495 2 2 C1.67 2.99 1.34 3.98 1 5 C0 8 0 8 -2 9 C-1.34 6.03 -0.68 3.06 0 0 Z " fill="#DEB98A" transform="translate(207,467)"/>
<path d="M0 0 C0.66 0.33 1.32 0.66 2 1 C-0.31 3.64 -2.62 6.28 -5 9 C-5.33 8.01 -5.66 7.02 -6 6 C-4.02 4.02 -2.04 2.04 0 0 Z " fill="#CCB9A2" transform="translate(52,399)"/>
<path d="M0 0 C2.97 0.495 2.97 0.495 6 1 C6.33 2.65 6.66 4.3 7 6 C5.83054208 5.19152271 4.66449539 4.37810888 3.5 3.5625 C2.8503125 3.11003906 2.200625 2.65757812 1.53125 2.19140625 C1.0259375 1.79824219 0.520625 1.40507812 0 1 C0 0.67 0 0.34 0 0 Z " fill="#BB9D92" transform="translate(452,395)"/>
<path d="M0 0 C0.66 0.33 1.32 0.66 2 1 C0.02 3.31 -1.96 5.62 -4 8 C-4.66 7.67 -5.32 7.34 -6 7 C-4.02 4.69 -2.04 2.38 0 0 Z " fill="#9B8E93" transform="translate(377,308)"/>
<path d="M0 0 C0.66 0.99 1.32 1.98 2 3 C0.68 4.32 -0.64 5.64 -2 7 C-2.6875 5.1875 -2.6875 5.1875 -3 3 C-1.5625 1.25 -1.5625 1.25 0 0 Z " fill="#81798B" transform="translate(186,139)"/>
</svg>
